<svg xmlns="http://www.w3.org/2000/svg" viewBox="0 0 114.68 43.17"><defs><style>.cls-1{fill:#af49f9;}.cls-1,.cls-2{fill-rule:evenodd;}.cls-2{fill:#1b1725;}</style></defs><title>Asset 1</title><g id="Layer_2" data-name="Layer 2"><g id="Слой_1" data-name="Слой 1"><path class="cls-1" d="M108.44,0h0a6.25,6.25,0,1,1-6.26,6.24A6.25,6.25,0,0,1,108.44,0Z"/><path class="cls-2" d="M95.73,19.38a23.38,23.38,0,0,0-10.15-2.61,7,7,0,0,0-3.65.77,2.37,2.37,0,0,0-1.26,2.12A1.82,1.82,0,0,0,81,20.81a2.57,2.57,0,0,0,1.19.75,12,12,0,0,0,1.57.47c.51.11,1.2.23,2.08.36l2.82.43q10.75,1.65,10.74,9.55a9.38,9.38,0,0,1-3.88,7.88q-3.89,2.93-10.76,2.92-8.81,0-14.16-3.77L74,32.9A19,19,0,0,0,84.86,36c3.93,0,5.89-1,5.89-3a2.08,2.08,0,0,0-1.24-1.85,12.5,12.5,0,0,0-4.05-1.08l-2.59-.37q-11-1.56-11-9.68a9.16,9.16,0,0,1,3.58-7.65Q79,9.66,85.32,9.67a29.14,29.14,0,0,1,13.31,3Zm-45-1.79a7.61,7.61,0,0,0-5.95,2.5,9.08,9.08,0,0,0-2.28,6.26,9,9,0,0,0,2.27,6.27,7.61,7.61,0,0,0,5.94,2.52,7.7,7.7,0,0,0,5.94-2.47,8.93,8.93,0,0,0,2.29-6.3,8.88,8.88,0,0,0-2.28-6.3A7.68,7.68,0,0,0,50.73,17.59Zm-1.57-8a11.65,11.65,0,0,1,9.37,4.19V1h8.55l0,41.35H58.66V38.8a11.64,11.64,0,0,1-9.54,4.33,14.35,14.35,0,0,1-11-4.81,17,17,0,0,1-4.39-12,17,17,0,0,1,4.41-12A14.38,14.38,0,0,1,49.16,9.59Zm-19,19.12a16.06,16.06,0,0,1-1.23,6.47,11.34,11.34,0,0,1-3.34,4.52,14.6,14.6,0,0,1-4.77,2.54,18.21,18.21,0,0,1-5.73.85,19.93,19.93,0,0,1-4.64-.53A14.66,14.66,0,0,1,6.32,40.9,12.68,12.68,0,0,1,3,38.1,12.42,12.42,0,0,1,.8,34,16.72,16.72,0,0,1,0,28.68L0,10.4H8.6l0,17.52c0,2.43.59,4.24,1.77,5.41a6.43,6.43,0,0,0,4.73,1.76,6.41,6.41,0,0,0,4.74-1.75c1.18-1.17,1.78-3,1.78-5.41l0-17.52h8.55Z"/></g></g></svg>